<svg xmlns="http://www.w3.org/2000/svg" width="540" height="540" id="deadline">
  <path fill="#485EFF" d="M407.531 124.01c-17.561 49.8-50.011 111.02-108.17 141.77v11.24h-58.72v-11.24c-55.99-29.6-88.15-87.43-106.14-136.14 11.09-16.01 76.14-45.18 140.25-15.73 10.56 4.85 20.33 8.9 29.37 12.23 58.339 21.53 86.429 13.24 103.41-2.13z" opacity=".3"></path>
  <path fill="#5C77FF" d="m161.367 493.594 82.421-57.614c15.868-11.093 36.855-11.541 53.185-1.138l92.207 58.752H161.367z"></path>
  <circle cx="426.621" cy="270" r="28.477" fill="#5C77FF"></circle>
  <circle cx="113.379" cy="270" r="28.477" fill="#5C77FF"></circle>
  <path fill="#5C77FF" d="M270 298.755a7.5 7.5 0 0 1-7.5-7.5V262.78a7.5 7.5 0 0 1 15 0v28.475a7.5 7.5 0 0 1-7.5 7.5zm0 56.953a7.5 7.5 0 0 1-7.5-7.5v-28.477a7.5 7.5 0 0 1 7.5-7.5c4.143 0 7.5 3.357 7.5 7.5v28.477a7.5 7.5 0 0 1-7.5 7.5zm0 66.445a7.5 7.5 0 0 1-7.5-7.5v-37.969a7.5 7.5 0 0 1 7.5-7.5c4.143 0 7.5 3.357 7.5 7.5v37.969c0 4.143-3.357 7.5-7.5 7.5z"></path>
  <path fill="#354B87" d="M426.621 249.023a7.5 7.5 0 0 0 7.5-7.5V54.901c10.568-.612 18.984-9.378 18.984-20.097V31.64c0-11.114-9.042-20.156-20.156-20.156H107.051c-11.114 0-20.156 9.042-20.156 20.156v3.164c0 10.719 8.417 19.485 18.984 20.097v186.622a7.5 7.5 0 0 0 15 0V112.957a423.5 423.5 0 0 0 6.57 19.229c.006.018.009.035.016.052 16.819 45.539 48.723 105.931 105.676 137.992v10.856c-6.353 5.008-21.969 17.84-40.327 36.725-25.791 26.522-54.798 62.697-71.934 104.388V298.476c0-4.143-3.358-7.5-7.5-7.5s-7.5 3.357-7.5 7.5v187.677c-10.568.612-18.984 9.378-18.984 20.097v3.164c0 11.114 9.042 20.156 20.156 20.156H432.95c11.114 0 20.156-9.042 20.156-20.156v-3.164c0-10.719-8.416-19.484-18.984-20.097V298.476c0-4.143-3.357-7.5-7.5-7.5s-7.5 3.357-7.5 7.5V422.32c-4.963-12.08-11.144-24.258-18.545-36.496-19.667-32.523-44.521-59.575-61.905-76.539-14.586-14.247-26.474-23.99-31.811-28.198v-10.856c58.702-33.041 90.946-96.098 107.739-143.715l.005-.012a430.023 430.023 0 0 0 4.517-13.55v128.57a7.498 7.498 0 0 0 7.499 7.499zM101.895 34.804V31.64c0-2.795 2.361-5.156 5.156-5.156h325.898c2.795 0 5.156 2.361 5.156 5.156v3.164c0 2.795-2.361 5.156-5.156 5.156H107.051c-2.795.001-5.156-2.361-5.156-5.156zM438.106 506.25v3.164c0 2.795-2.361 5.156-5.156 5.156H107.051c-2.795 0-5.156-2.361-5.156-5.156v-3.164c0-2.795 2.361-5.156 5.156-5.156h325.898c2.795 0 5.157 2.361 5.157 5.156zM295.855 259.149a7.5 7.5 0 0 0-3.994 6.63V284.769a7.501 7.501 0 0 0 3.017 6.012c.143.107 14.562 10.918 33.314 29.237 32.805 32.011 87.082 95.265 90.734 166.071H121.07c3.198-63.382 46.201-120.495 82.498-157.822 22.635-23.283 41.372-37.348 41.556-37.485a7.503 7.503 0 0 0 3.017-6.013V265.779a7.499 7.499 0 0 0-3.995-6.63c-53.549-28.31-84.35-84.337-101.043-127.94 1.586-1.468 3.719-3.088 6.339-4.766l.188-.122c.289-.184.605-.37.906-.555 13.385-8.161 37.783-16.984 65.953-16.984 13.245 0 26.121 1.887 38.464 5.623l.215.064c.983.3 1.962.614 2.938.937.163.054.325.105.488.16.872.292 1.739.598 2.605.909.25.089.498.174.747.266.757.277 1.511.568 2.264.86.343.133.684.258 1.027.395.607.241 1.209.495 1.813.745.478.198.955.388 1.433.593.222.095.441.197.662.293.824.358 1.647.719 2.473 1.098 9.559 4.391 18.768 8.256 27.422 11.521.83.313 1.661.628 2.48.93.163.06.321.115.484.175 1.217.447 2.423.882 3.621 1.307.495.175.985.344 1.477.516a335.713 335.713 0 0 0 4.22 1.439c.871.289 1.735.57 2.596.847.476.153.954.309 1.426.458 1.277.403 2.546.795 3.802 1.171.243.073.481.14.725.211 1.057.313 2.106.617 3.147.91.418.117.831.229 1.246.344.9.248 1.796.489 2.685.721.374.098.748.196 1.12.291 1.07.274 2.133.538 3.187.79l.456.111c20.785 4.927 38.288 5.557 53.019 1.878.14-.034.278-.07.417-.105.885-.227 1.76-.467 2.625-.725.121-.036.243-.068.364-.105a65.18 65.18 0 0 0 2.661-.873c.29-.101.575-.209.862-.314.319-.117.643-.228.959-.35-17.818 42.528-47.854 91.416-96.764 117.276zm105.251-139.485-.109.091c-9.686 8.124-21.387 11.923-36.635 11.923-8.79 0-18.769-1.337-29.839-3.99l-.037-.009a195.62 195.62 0 0 1-3.622-.907l-.329-.087a228.26 228.26 0 0 1-9.719-2.791c-.772-.24-1.542-.477-2.329-.73-.676-.216-1.358-.442-2.04-.667a254.085 254.085 0 0 1-3.147-1.059c-.523-.179-1.045-.356-1.571-.541a302.492 302.492 0 0 1-8.523-3.113c-8-3.054-16.502-6.644-25.328-10.696-.345-.158-.693-.305-1.038-.46-.765-.344-1.528-.688-2.292-1.016-.505-.217-1.013-.423-1.519-.634-.634-.264-1.269-.529-1.902-.782-.53-.212-1.063-.417-1.596-.623a127.547 127.547 0 0 0-3.461-1.289c-.638-.228-1.274-.45-1.912-.667-.511-.175-1.022-.35-1.535-.518-.723-.238-1.445-.466-2.168-.691-.426-.133-.851-.271-1.279-.4a140.64 140.64 0 0 0-3.467-1.002c-.086-.024-.173-.045-.26-.068a144.998 144.998 0 0 0-3.336-.867c-.262-.064-.524-.125-.787-.188-.988-.239-1.975-.468-2.96-.684l-.657-.143a141.65 141.65 0 0 0-3.521-.713l-.012-.002c-45.362-8.591-86.902 5.755-106.417 19.994-8.996-26.692-13.622-49.62-15.639-61.375h295.762c-2.093 12.229-7.014 36.556-16.776 64.704z"></path>
</svg>
